<?xml version="1.0" encoding="UTF-8" standalone="no"?>
<!-- Created with Inkscape (http://www.inkscape.org/) -->

<svg
   width="256mm"
   height="256mm"
   viewBox="0 0 256 256"
   version="1.1"
   id="svg1"
   inkscape:version="1.4.2 (ebf0e940d0, 2025-05-08)"
   sodipodi:docname="Heads.svg"
   xml:space="preserve"
   inkscape:export-filename="AverageShort_eastm.png"
   inkscape:export-xdpi="50.799999"
   inkscape:export-ydpi="50.799999"
   xmlns:inkscape="http://www.inkscape.org/namespaces/inkscape"
   xmlns:sodipodi="http://sodipodi.sourceforge.net/DTD/sodipodi-0.dtd"
   xmlns:xlink="http://www.w3.org/1999/xlink"
   xmlns="http://www.w3.org/2000/svg"
   xmlns:svg="http://www.w3.org/2000/svg"><sodipodi:namedview
     id="namedview1"
     pagecolor="#505050"
     bordercolor="#eeeeee"
     borderopacity="1"
     inkscape:showpageshadow="0"
     inkscape:pageopacity="0"
     inkscape:pagecheckerboard="0"
     inkscape:deskcolor="#505050"
     inkscape:document-units="mm"
     inkscape:zoom="2.9041806"
     inkscape:cx="434.89031"
     inkscape:cy="471.38942"
     inkscape:window-width="2560"
     inkscape:window-height="1440"
     inkscape:window-x="0"
     inkscape:window-y="0"
     inkscape:window-maximized="1"
     inkscape:current-layer="g13" /><defs
     id="defs1"><inkscape:path-effect
       effect="mirror_symmetry"
       start_point="483.77953,0"
       end_point="483.77953,967.55906"
       center_point="483.77953,483.77953"
       id="path-effect22"
       is_visible="true"
       lpeversion="1.2"
       lpesatellites=""
       mode="vertical"
       discard_orig_path="false"
       fuse_paths="true"
       oposite_fuse="true"
       split_items="false"
       split_open="false"
       link_styles="false" /><inkscape:path-effect
       effect="mirror_symmetry"
       start_point="483.77953,0"
       end_point="483.77953,967.55906"
       center_point="483.77953,483.77953"
       id="path-effect21"
       is_visible="true"
       lpeversion="1.2"
       lpesatellites=""
       mode="vertical"
       discard_orig_path="false"
       fuse_paths="true"
       oposite_fuse="true"
       split_items="false"
       split_open="false"
       link_styles="false" /><inkscape:path-effect
       effect="powerstroke"
       message=""
       id="path-effect19"
       is_visible="true"
       lpeversion="1.3"
       scale_width="1"
       interpolator_type="CentripetalCatmullRom"
       interpolator_beta="0.2"
       start_linecap_type="zerowidth"
       end_linecap_type="zerowidth"
       offset_points="3,4.57797"
       linejoin_type="round"
       miter_limit="4"
       not_jump="false"
       sort_points="true" /><inkscape:path-effect
       effect="mirror_symmetry"
       start_point="483.77953,0"
       end_point="483.77953,967.55906"
       center_point="483.77953,483.77953"
       id="path-effect18"
       is_visible="true"
       lpeversion="1.2"
       lpesatellites=""
       mode="vertical"
       discard_orig_path="false"
       fuse_paths="true"
       oposite_fuse="true"
       split_items="false"
       split_open="false"
       link_styles="false" /><inkscape:path-effect
       effect="powerstroke"
       message=""
       id="path-effect16"
       is_visible="true"
       lpeversion="1.3"
       scale_width="1"
       interpolator_type="CentripetalCatmullRom"
       interpolator_beta="0.2"
       start_linecap_type="zerowidth"
       end_linecap_type="zerowidth"
       offset_points="4,4.57797"
       linejoin_type="round"
       miter_limit="4"
       not_jump="false"
       sort_points="true" /><inkscape:path-effect
       effect="mirror_symmetry"
       start_point="483.77953,0"
       end_point="483.77953,967.55906"
       center_point="483.77953,483.77953"
       id="path-effect15"
       is_visible="true"
       lpeversion="1.2"
       lpesatellites=""
       mode="vertical"
       discard_orig_path="false"
       fuse_paths="true"
       oposite_fuse="true"
       split_items="false"
       split_open="false"
       link_styles="false" /><inkscape:path-effect
       effect="powerstroke"
       message=""
       id="path-effect13"
       is_visible="true"
       lpeversion="1.3"
       scale_width="1"
       interpolator_type="CentripetalCatmullRom"
       interpolator_beta="0.2"
       start_linecap_type="zerowidth"
       end_linecap_type="zerowidth"
       offset_points="2.9701576,4.098632"
       linejoin_type="round"
       miter_limit="4"
       not_jump="false"
       sort_points="true" /><inkscape:path-effect
       effect="mirror_symmetry"
       start_point="128,0"
       end_point="128,256"
       center_point="128,128"
       id="path-effect12"
       is_visible="true"
       lpeversion="1.2"
       lpesatellites=""
       mode="vertical"
       discard_orig_path="false"
       fuse_paths="true"
       oposite_fuse="true"
       split_items="false"
       split_open="false"
       link_styles="false" /><inkscape:path-effect
       effect="powerstroke"
       message=""
       id="path-effect3"
       is_visible="true"
       lpeversion="1.3"
       scale_width="1"
       interpolator_type="CentripetalCatmullRom"
       interpolator_beta="0.2"
       start_linecap_type="zerowidth"
       end_linecap_type="zerowidth"
       offset_points="3,3.6111645"
       linejoin_type="round"
       miter_limit="4"
       not_jump="false"
       sort_points="true" /><inkscape:path-effect
       effect="powerstroke"
       message=""
       id="path-effect9"
       is_visible="true"
       lpeversion="1.3"
       scale_width="1"
       interpolator_type="CentripetalCatmullRom"
       interpolator_beta="0.2"
       start_linecap_type="zerowidth"
       end_linecap_type="zerowidth"
       offset_points="0.36831915,2.0012786 | 5.366077,0.43408488 | 5.0231205,0.99696087 | 6.0995884,0.48850257 | 6.2738733,1.1371155 | 6.4687937,1.5484414 | 3.5359766,1.7444656"
       linejoin_type="round"
       miter_limit="4"
       not_jump="false"
       sort_points="true" /><inkscape:path-effect
       effect="powerstroke"
       message=""
       id="path-effect5"
       is_visible="true"
       lpeversion="1.3"
       scale_width="1"
       interpolator_type="CentripetalCatmullRom"
       interpolator_beta="0.2"
       start_linecap_type="zerowidth"
       end_linecap_type="zerowidth"
       offset_points="0.71893434,1.9556996 | 0.12865296,1.4373887 | 8.0796703,0.8062098 | 4.9429584,1.6656096 | 7.1674849,1.8596098"
       linejoin_type="round"
       miter_limit="4"
       not_jump="false"
       sort_points="true" /><linearGradient
       id="linearGradient13"><stop
         style="stop-color:#f4f4f4;stop-opacity:1;"
         offset="0.68128377"
         id="stop10" /><stop
         style="stop-color:#ebe1d9;stop-opacity:1;"
         offset="0.7428053"
         id="stop8" /><stop
         style="stop-color:#ebe0d7;stop-opacity:1;"
         offset="1"
         id="stop13" /></linearGradient><inkscape:path-effect
       effect="mirror_symmetry"
       start_point="129.77366,-118.44149"
       end_point="129.77366,363.89767"
       center_point="129.77366,122.72809"
       id="path-effect10"
       is_visible="true"
       lpeversion="1.2"
       lpesatellites=""
       mode="vertical"
       discard_orig_path="false"
       fuse_paths="true"
       oposite_fuse="true"
       split_items="false"
       split_open="false"
       link_styles="false" /><linearGradient
       id="linearGradient9"><stop
         style="stop-color:#ebe0d7;stop-opacity:1;"
         offset="0"
         id="stop6" /><stop
         style="stop-color:#ebe1d9;stop-opacity:1;"
         offset="0.55977362"
         id="stop2" /><stop
         style="stop-color:#f4f4f4;stop-opacity:1;"
         offset="0.70558274"
         id="stop9" /></linearGradient><inkscape:path-effect
       effect="mirror_symmetry"
       start_point="129.77366,-118.44149"
       end_point="129.77366,363.89767"
       center_point="129.77366,122.72809"
       id="path-effect6"
       is_visible="true"
       lpeversion="1.2"
       lpesatellites=""
       mode="vertical"
       discard_orig_path="false"
       fuse_paths="true"
       oposite_fuse="true"
       split_items="false"
       split_open="false"
       link_styles="false" /><inkscape:path-effect
       effect="mirror_symmetry"
       start_point="129.77366,-118.44149"
       end_point="129.77366,363.89767"
       center_point="129.77366,122.72809"
       id="path-effect4"
       is_visible="true"
       lpeversion="1.2"
       lpesatellites=""
       mode="vertical"
       discard_orig_path="false"
       fuse_paths="true"
       oposite_fuse="true"
       split_items="false"
       split_open="false"
       link_styles="false" /><linearGradient
       id="linearGradient165"
       inkscape:collect="always"><stop
         style="stop-color:#f4f4f4;stop-opacity:1;"
         offset="0.74827355"
         id="stop165" /><stop
         style="stop-color:#ebe0d7;stop-opacity:1;"
         offset="0.98000002"
         id="stop166" /></linearGradient><linearGradient
       id="linearGradient158"><stop
         style="stop-color:#f4f4f4;stop-opacity:1;"
         offset="0.69909829"
         id="stop160" /><stop
         style="stop-color:#eee8e2;stop-opacity:1;"
         offset="0.81177831"
         id="stop1" /><stop
         style="stop-color:#ebe0d7;stop-opacity:1;"
         offset="1"
         id="stop161" /></linearGradient><linearGradient
       id="linearGradient158-1"><stop
         style="stop-color:#f4f4f4;stop-opacity:1;"
         offset="0"
         id="stop158" /><stop
         style="stop-color:#f4f4f4;stop-opacity:0;"
         offset="1"
         id="stop159" /></linearGradient><inkscape:path-effect
       effect="mirror_symmetry"
       start_point="129.77366,-118.44149"
       end_point="129.77366,363.89767"
       center_point="129.77366,122.72809"
       id="path-effect2"
       is_visible="true"
       lpeversion="1.2"
       lpesatellites=""
       mode="vertical"
       discard_orig_path="false"
       fuse_paths="true"
       oposite_fuse="true"
       split_items="false"
       split_open="false"
       link_styles="false" /><inkscape:path-effect
       effect="knot"
       id="path-effect1"
       is_visible="true"
       lpeversion="1"
       switcher_size="15"
       interruption_width="3"
       prop_to_stroke_width="true"
       add_stroke_width="inkscape_1.0_and_up"
       both="false"
       inverse_width="false"
       add_other_stroke_width="inkscape_1.0_and_up"
       crossing_points_vector="" /><radialGradient
       inkscape:collect="always"
       xlink:href="#linearGradient158"
       id="radialGradient159"
       cx="129.28354"
       cy="130.56213"
       fx="129.28354"
       fy="130.56213"
       r="73.008278"
       gradientTransform="matrix(1.1694717,-6.96455e-8,1.2145081e-7,1.3249267,-22.489043,-38.198091)"
       gradientUnits="userSpaceOnUse"
       spreadMethod="pad" /><filter
       inkscape:collect="always"
       style="color-interpolation-filters:sRGB"
       id="filter164"
       x="-0.0076410706"
       y="-0.0062937176"
       width="1.0152821"
       height="1.0125874"><feGaussianBlur
         inkscape:collect="always"
         stdDeviation="0.44277294"
         id="feGaussianBlur164" /></filter><radialGradient
       inkscape:collect="always"
       xlink:href="#linearGradient165"
       id="radialGradient166"
       cx="137.44841"
       cy="133.07651"
       fx="137.44841"
       fy="133.07651"
       r="40.838762"
       gradientTransform="matrix(0.8262925,0.59253119,-0.52384987,0.73051552,95.472462,-45.590961)"
       gradientUnits="userSpaceOnUse" /><radialGradient
       inkscape:collect="always"
       xlink:href="#linearGradient9"
       id="radialGradient6"
       gradientUnits="userSpaceOnUse"
       gradientTransform="matrix(1.2487989,-0.00425761,0.00489344,1.4513034,-33.529746,-54.124553)"
       cx="131.46475"
       cy="146.4429"
       fx="131.46475"
       fy="146.4429"
       r="73.008278"
       spreadMethod="pad" /><radialGradient
       inkscape:collect="always"
       xlink:href="#linearGradient13"
       id="radialGradient10"
       gradientUnits="userSpaceOnUse"
       gradientTransform="matrix(1.1694717,-6.96455e-8,1.2145081e-7,1.3249267,-22.489043,-38.198091)"
       cx="130.74319"
       cy="107.24194"
       fx="130.74319"
       fy="107.24194"
       r="73.008278"
       spreadMethod="pad" /><inkscape:path-effect
       effect="fill_between_many"
       method="bsplinespiro"
       autoreverse="false"
       close="false"
       join="false"
       linkedpaths="#path2,0,1"
       id="path-effect7" /><mask
       maskUnits="userSpaceOnUse"
       id="mask8"><use
         x="0"
         y="0"
         xlink:href="#path7"
         id="use8"
         style="display:inline;opacity:1" /></mask><filter
       inkscape:collect="always"
       style="color-interpolation-filters:sRGB"
       id="filter8"
       x="-0.022576537"
       y="-0.33803397"
       width="1.0451531"
       height="1.6760679"><feGaussianBlur
         inkscape:collect="always"
         stdDeviation="0.386 5.663"
         id="feGaussianBlur8" /></filter><inkscape:path-effect
       effect="fill_between_many"
       method="bsplinespiro"
       autoreverse="false"
       close="false"
       join="false"
       linkedpaths="#path165,0,1"
       id="path-effect11" /><mask
       maskUnits="userSpaceOnUse"
       id="mask12"><use
         x="0"
         y="0"
         xlink:href="#path11"
         id="use12"
         style="display:inline;opacity:1" /></mask><filter
       inkscape:collect="always"
       style="color-interpolation-filters:sRGB"
       id="filter12"
       x="-0.0001077354"
       y="-0.22876104"
       width="1.0002155"
       height="1.4575221"><feGaussianBlur
         inkscape:collect="always"
         stdDeviation="0.002 3.95"
         id="feGaussianBlur12" /></filter><filter
       inkscape:collect="always"
       style="color-interpolation-filters:sRGB"
       id="filter13"
       x="-0.19119897"
       y="-0.17809264"
       width="1.3823979"
       height="1.3561853"><feGaussianBlur
         inkscape:collect="always"
         stdDeviation="1.877997"
         id="feGaussianBlur13" /></filter><inkscape:path-effect
       effect="fill_between_many"
       method="bsplinespiro"
       autoreverse="false"
       close="false"
       join="false"
       linkedpaths="#path1,0,1"
       id="path-effect8" /><inkscape:path-effect
       effect="fill_between_many"
       method="bsplinespiro"
       autoreverse="false"
       close="false"
       join="false"
       linkedpaths="#path9,0,1"
       id="path-effect14" /><mask
       maskUnits="userSpaceOnUse"
       id="mask2"><use
         x="0"
         y="0"
         xlink:href="#path14"
         id="use3"
         style="display:inline;opacity:1" /></mask><inkscape:path-effect
       effect="fill_between_many"
       method="bsplinespiro"
       autoreverse="false"
       close="false"
       join="false"
       linkedpaths="#path4,0,1"
       id="path-effect17" /><mask
       maskUnits="userSpaceOnUse"
       id="mask18"><use
         x="0"
         y="0"
         xlink:href="#path17"
         id="use19"
         style="display:inline;opacity:1" /></mask><inkscape:path-effect
       effect="fill_between_many"
       method="bsplinespiro"
       autoreverse="false"
       close="false"
       join="false"
       linkedpaths="#path3,0,1"
       id="path-effect20" /><mask
       maskUnits="userSpaceOnUse"
       id="mask21"><use
         x="0"
         y="0"
         xlink:href="#path20"
         id="use22"
         style="display:inline;opacity:1" /></mask><mask
       maskUnits="userSpaceOnUse"
       id="mask23"><use
         x="0"
         y="0"
         xlink:href="#g22"
         id="use24"
         style="display:inline;opacity:1" /></mask><inkscape:path-effect
       effect="fill_between_many"
       method="originald"
       linkedpaths="#path1,0,1"
       id="path-effect23"
       join="true"
       close="true"
       autoreverse="true"
       is_visible="true"
       lpeversion="0" /></defs><g
     inkscape:groupmode="layer"
     id="layer3"
     inkscape:label="AverageLong"
     style="display:inline;opacity:1"><g
       id="g9"
       inkscape:label="east"
       style="display:none"><path
         inkscape:original-d="M 0,0"
         inkscape:path-effect="#path-effect11"
         d="m 126.23753,85.81853 c 21.59191,0 34.19485,15.16744 37.0937,29.95865 3.11574,15.89789 -1.20981,18.59514 -1.51775,24.13775 -0.30792,5.5426 5.4679,6.37618 5.92978,8.6856 0.46189,2.30941 -12.26792,21.84212 -16.01391,21.54876 -1.21889,-0.0955 -13.52509,-4.0946 -20.50239,-7.9024 -6.21564,-3.39213 -9.58966,-3.78506 -11.3011,-4.25829 -11.51348,-3.18358 -20.395179,-9.96083 -25.566023,-21.99741 -11.909714,-27.72317 9.675473,-50.17266 31.877693,-50.17266 z"
         id="path11"
         style="fill:url(#radialGradient166)"
         inkscape:label="fill" /><g
         id="g12"
         mask="url(#mask12)"><path
           style="display:inline;opacity:1;fill:#ebe0d7;fill-opacity:1;stroke:none;stroke-width:0.899583;filter:url(#filter12)"
           d="m 136.22038,163.67756 c 0,0 -6.60863,-5.71322 -8.67008,-12.67063 -2.06146,-6.95741 1.19731,-18.50888 -2.15256,-20.57033 -3.34986,-2.06146 -29.37573,-1.80378 -32.467913,3.09218 -3.092183,4.89595 2.061454,22.676 6.957409,27.31427 4.895954,4.63828 29.375734,9.53423 30.664144,9.79192 1.28841,0.25768 7.47278,-1.54609 5.669,-6.95741 z"
           id="path12"
           sodipodi:nodetypes="csssssc"
           inkscape:label="shadow" /><rect
           style="display:inline;opacity:1;fill:#ff0000;fill-opacity:1;fill-rule:evenodd;stroke-width:0.899583"
           id="rect1"
           width="108.96074"
           height="116.79572"
           x="73.794479"
           y="67.963799"
           inkscape:label="mask" /></g><path
         style="display:inline;opacity:1;fill:#000000;fill-opacity:1;fill-rule:nonzero;stroke:none;stroke-width:4.873;stroke-linejoin:miter;stroke-dasharray:none;stroke-opacity:1"
         d="m 126.23753,87.733462 c 2.83657,0.01071 8.0724,0.299988 13.77955,2.537223 1.749,0.685622 3.54696,1.554471 5.34308,2.652921 1.60085,0.979033 3.33651,2.225303 5.08382,3.814606 4.73204,4.304118 9.24999,10.961688 10.91142,19.426198 0.73299,3.73491 1.05825,6.78598 1.08822,9.33348 0.0278,2.36032 -0.19958,4.22044 -0.54111,5.80597 -0.33631,1.56128 -0.75228,2.75713 -1.18051,4.1443 -0.2022,0.65501 -0.40172,1.34106 -0.55919,2.05947 -0.15771,0.7195 -0.27475,1.47704 -0.31734,2.29796 -0.0452,0.86671 0.0273,1.67274 0.20462,2.42236 0.17751,0.75048 0.45436,1.42008 0.7968,2.01806 0.3425,0.5981 0.7435,1.11224 1.15893,1.55748 0.41732,0.44724 0.85476,0.83074 1.26838,1.16136 0.41509,0.3318 0.8304,0.62909 1.18264,0.87971 0.37915,0.26976 0.66758,0.47342 0.92469,0.67519 0.26093,0.20476 0.40284,0.34148 0.48807,0.43816 0.0382,0.0434 0.0538,0.0662 0.0572,0.066 0.004,-2e-4 -0.004,-0.0251 -0.008,-0.0586 -0.0367,-0.19223 -0.0197,-0.26831 -0.0161,-0.28678 0.004,-0.0186 0.001,0.021 -0.0148,0.091 -0.0354,0.15479 -0.11406,0.39948 -0.24662,0.73103 -0.13313,0.33294 -0.30798,0.72265 -0.52016,1.15916 -0.21689,0.4462 -0.46841,0.93238 -0.74743,1.44688 -1.2079,2.22731 -2.88404,4.89493 -4.49763,7.23841 -0.25466,0.36985 -0.50822,0.73256 -0.75963,1.08689 -0.63224,0.89102 -1.27174,1.75767 -1.90313,2.57511 -0.89314,1.15632 -1.76013,2.20131 -2.56148,3.0751 -0.40287,0.43929 -0.78371,0.82937 -1.13854,1.16579 -0.35843,0.33983 -0.67963,0.61474 -0.9617,0.82768 -0.28974,0.21873 -0.50466,0.34672 -0.65449,0.41924 -0.07,0.0339 -0.11485,0.0495 -0.12452,0.0554 -0.01,0.006 0.018,0.002 0.0807,0.0107 0.0482,0.008 0.0259,0.0114 0.005,0.0106 -0.0289,-0.001 -0.0781,-0.007 -0.14161,-0.0171 -0.12948,-0.0206 -0.30976,-0.0574 -0.52989,-0.10828 -0.45034,-0.10406 -1.04933,-0.26266 -1.74904,-0.46263 -1.48825,-0.42531 -3.3664,-1.01825 -5.33153,-1.68647 -2.20743,-0.75061 -4.40787,-1.55571 -6.42577,-2.35218 -2.45629,-0.96951 -4.42561,-1.83981 -5.96475,-2.59435 -0.15263,-0.0742 -0.30113,-0.14526 -0.44547,-0.21328 -2.27764,-1.07334 -4.32774,-1.56032 -5.63296,-1.96752 -0.53499,-0.1669 -1.0698,-0.3257 -1.64385,-0.48264 -0.9442,-0.25814 -1.6516,-0.41898 -2.38695,-0.59199 -0.72825,-0.17133 -1.22907,-0.29912 -1.58354,-0.45907 -1.30677,-0.39293 -2.41103,-0.79693 -3.29382,-1.1673 -2.21302,-0.92847 -3.71684,-2.03771 -5.11793,-2.94422 -1.13949,-0.73726 -3.27342,-2.24699 -5.07529,-3.77192 -0.23266,-0.19691 -0.48728,-0.4159 -0.75859,-0.656 -2.67636,-2.36851 -6.685531,-6.50311 -9.776974,-13.81037 -2.799624,-6.56023 -3.671383,-12.84542 -2.990371,-18.61979 0.683967,-5.79942 2.909453,-10.88241 5.99249,-15.05637 3.438385,-4.655051 7.790335,-7.993988 12.069615,-10.175441 6.18106,-3.15093 11.75602,-3.714214 15.16506,-3.701207 z m 0,-3.829864 c -3.84212,0.01305 -10.04273,0.670519 -16.87945,4.180608 -4.72519,2.425997 -9.54014,6.135696 -13.34752,11.323031 -3.420689,4.660493 -5.892734,10.350913 -6.632667,16.838273 -0.737384,6.46501 0.28533,13.38097 3.341046,20.4506 3.438091,7.89145 7.948371,12.38451 11.032071,14.82679 0.31118,0.24645 0.60361,0.46824 0.87235,0.66517 2.36376,1.73207 4.2964,2.65342 5.9261,3.34746 1.48964,0.63439 3.66721,1.20359 5.85183,1.85347 0.94382,0.28076 2.07883,0.61106 3.42709,0.95212 0.37987,0.0487 0.95829,0.15032 1.64393,0.31689 0.6791,0.16499 1.45295,0.39088 2.30853,0.70116 0.53771,0.19501 1.06117,0.40656 1.55217,0.62357 1.35392,0.59838 2.8109,1.59078 4.9971,2.91272 0.13184,0.0797 0.26779,0.16229 0.4077,0.24774 1.54186,0.92663 3.52883,1.95041 5.98653,3.06112 2.0248,0.91507 4.22712,1.82456 6.44414,2.67897 1.97531,0.76126 3.85803,1.4382 5.37899,1.95257 0.71019,0.24018 1.34048,0.44447 1.83455,0.59492 0.24051,0.0732 0.46391,0.13833 0.65066,0.18801 0.0931,0.0248 0.18677,0.0483 0.27481,0.0677 0.0828,0.0183 0.18727,0.039 0.29741,0.0512 0.2956,0.027 0.57759,0.003 0.83441,-0.0482 0.25538,-0.0504 0.49896,-0.1293 0.7263,-0.2223 0.44682,-0.1828 0.8861,-0.44294 1.30614,-0.73814 0.4215,-0.29623 0.85363,-0.64906 1.2901,-1.04195 0.43501,-0.39158 0.88331,-0.83109 1.33949,-1.30758 0.9054,-0.94571 1.85722,-2.05325 2.81333,-3.24858 0.67812,-0.8478 1.36045,-1.74234 2.03152,-2.65754 0.26705,-0.3642 0.53598,-0.73678 0.80579,-1.11652 1.70378,-2.39793 3.46504,-5.11724 4.7993,-7.49736 0.30649,-0.54672 0.59076,-1.07646 0.84299,-1.5755 0.24528,-0.48526 0.46534,-0.95148 0.64681,-1.38151 0.17441,-0.41325 0.32922,-0.83057 0.43192,-1.21937 0.0509,-0.19282 0.0966,-0.4068 0.12097,-0.62896 0.0229,-0.20932 0.0354,-0.49932 -0.0268,-0.81845 -0.061,-0.32238 -0.1661,-0.6204 -0.29969,-0.89309 -0.13058,-0.26652 -0.28642,-0.50492 -0.45066,-0.71737 -0.31578,-0.40845 -0.68967,-0.75491 -1.04123,-1.04793 -0.34416,-0.28686 -0.72196,-0.56691 -1.06671,-0.82411 -0.35116,-0.26199 -0.68411,-0.51193 -1.00372,-0.77775 -0.3135,-0.26074 -0.59724,-0.52311 -0.84582,-0.7992 -0.2453,-0.27243 -0.45159,-0.55301 -0.61595,-0.85114 -0.16237,-0.29451 -0.29011,-0.6174 -0.37166,-0.98361 -0.0817,-0.36668 -0.12202,-0.79937 -0.0903,-1.31728 0.0345,-0.56793 0.12077,-1.10776 0.2455,-1.65491 0.12684,-0.55636 0.2928,-1.11792 0.48839,-1.73599 0.39734,-1.25563 0.9027,-2.69538 1.29458,-4.47865 0.41295,-1.87915 0.67664,-4.03105 0.6501,-6.70021 -0.0283,-2.84775 -0.38676,-6.14976 -1.153,-10.06455 -1.84372,-9.42023 -6.86544,-16.823257 -12.16249,-21.625859 -1.95774,-1.775007 -3.90453,-3.166653 -5.70145,-4.258343 -2.01602,-1.22479 -4.03319,-2.185818 -5.99048,-2.937323 -6.37272,-2.44681 -12.16388,-2.675429 -15.21511,-2.664827 z"
         id="path165"
         sodipodi:nodetypes="csssssssc"
         inkscape:label="east"
         inkscape:path-effect="#path-effect9"
         inkscape:original-d="m 126.23753,85.81853 c 21.59191,0 34.19485,15.16744 37.0937,29.95865 3.11574,15.89789 -1.20981,18.59514 -1.51775,24.13775 -0.30792,5.5426 5.4679,6.37618 5.92978,8.6856 0.46189,2.30941 -12.26792,21.84212 -16.01391,21.54876 -1.21889,-0.0955 -13.52509,-4.0946 -20.50239,-7.9024 -6.21564,-3.39213 -9.58966,-3.78506 -11.3011,-4.25829 -11.51348,-3.18358 -20.395179,-9.96083 -25.566023,-21.99741 -11.909714,-27.72317 9.675473,-50.17266 31.877693,-50.17266 z"
         inkscape:linked-fill="path11" /></g><g
       id="g13"
       inkscape:label="south"
       style="display:inline"><g
         id="g22" /><g
         inkscape:groupmode="layer"
         id="layer6"
         inkscape:label="south"
         style="display:inline;opacity:1"
         mask="url(#mask23)"><rect
           style="display:none;fill:#ff0000;fill-opacity:1;fill-rule:evenodd;stroke-width:0.899583"
           id="rect13"
           width="115.69916"
           height="122.1412"
           x="69.058739"
           y="68.929901"
           inkscape:label="mask" /></g><path
         inkscape:original-d="M 0,0"
         inkscape:path-effect="#path-effect23"
         d="m 125.21978,83.574767 c 37.14765,0 39.6974,28.072063 39.38012,38.705063 -0.32718,10.96492 -4.29239,27.22578 -12.309,38.04969 -5.55606,7.50169 -24.18714,14.94246 -25.9663,14.94246 -7.50998,0 -1.10482,-91.697213 -1.10482,-91.697213 z"
         id="path23" /><path
         style="display:inline;mix-blend-mode:normal;fill:url(#radialGradient159);fill-opacity:1;fill-rule:nonzero;stroke:#000000;stroke-width:7.22233;stroke-dasharray:none;stroke-opacity:1"
         d="m 129.77344,39.126953 c -64.635011,2.579234 -69.155475,53.302071 -68.576174,72.824217 0.61304,20.6594 8.04174,51.29573 23.0625,71.68945 8.941592,12.14001 35.956254,24.19535 45.513674,27.35547 9.55742,-3.16012 36.57208,-15.21546 45.51367,-27.35547 15.02076,-20.39372 22.45141,-51.03005 23.06445,-71.68945 0.5793,-19.522146 -3.94311,-70.244983 -68.57812,-72.824217 z"
         id="path1"
         inkscape:path-effect="#path-effect2"
         inkscape:original-d="m 124.56435,39.024848 c 69.60369,0 74.38117,52.891629 73.78668,72.925662 -0.61304,20.6594 -8.04267,51.29711 -23.06343,71.69084 -10.4104,14.13421 -45.31952,28.15365 -48.65315,28.15365 -14.07146,0 -2.0701,-172.770152 -2.0701,-172.770152 z"
         sodipodi:nodetypes="csssc"
         transform="matrix(0.53370235,0,0,0.53074687,58.739492,62.862451)"
         inkscape:label="outline"
         inkscape:linked-fill="path10" /><path
         style="opacity:1;fill:#f4f4f4;fill-opacity:1;fill-rule:evenodd;stroke-width:2.1;stroke:#000000;stroke-opacity:1;stroke-dasharray:none;stroke-linejoin:round"
         d="m 98.949834,100.23824 c -11.724523,13.65714 -13.012933,31.95256 -13.012933,31.95256 0,0 6.82857,-15.20324 9.534229,-17.26469 2.70566,-2.06145 0.257683,-1.80377 -3.736388,9.79191 -3.994068,11.59568 -3.736385,19.32614 -3.736385,19.32614 0,0 5.153636,-12.23989 7.472773,-14.81671 2.319136,-2.57682 6.44205,-6.95741 6.44205,-6.95741 0,0 -3.73639,11.98221 -3.73639,17.26469 0,5.28248 0.773044,9.79191 0.644205,7.73045 -0.128841,-2.06145 9.663075,-21.25875 9.663075,-21.25875 0,0 -3.86523,12.23989 -1.80378,15.58975 2.06146,3.34987 2.31914,7.98814 2.8345,5.15364 0.51537,-2.8345 2.57682,-13.65714 5.41132,-15.84743 2.8345,-2.1903 10.04959,-22.54717 10.04959,-22.54717 0,0 3.47871,-11.724522 -3.86522,-13.270612 -7.34394,-1.546093 -15.84744,-0.773047 -22.160646,5.153632 z"
         id="path24" /></g><g
       id="g1"
       inkscape:label="north"
       style="display:none"><path
         inkscape:original-d="M 0,0"
         inkscape:path-effect="#path-effect14;#path-effect15"
         d=""
         id="path14"
         style="fill:url(#radialGradient10)"
         inkscape:label="fil" /><g
         inkscape:groupmode="layer"
         id="layer8"
         inkscape:label="sha"
         style="display:inline;opacity:1"
         mask="url(#mask2)"><rect
           style="display:inline;opacity:1;fill:#ff0000;fill-opacity:1;fill-rule:evenodd;stroke-width:0.899583"
           id="rect2"
           width="109.38595"
           height="110.03015"
           x="72.666283"
           y="68.929901"
           mask="none" /></g><path
         style="display:inline;mix-blend-mode:normal;fill:#000000;fill-opacity:1;fill-rule:nonzero;stroke:none;stroke-width:9.15594;stroke-dasharray:none;stroke-opacity:1;filter:url(#filter164)"
         d="m 129.59425,35.042006 c -13.61729,0.595911 -27.64722,3.592635 -39.630087,11.256357 -4.721266,3.019516 -8.948876,6.652731 -12.637703,10.906076 -3.367314,3.88263 -6.201744,8.185366 -8.535269,12.836656 -4.267853,8.506889 -6.641083,17.743805 -7.75375,26.754929 -1.014151,8.213266 -0.914745,15.710356 -0.516261,21.283396 0.735958,10.29283 2.19894,20.60982 5.113563,30.3926 2.807478,9.42314 6.926506,18.24634 12.953339,26.29679 6.023362,8.04581 12.950493,15.29941 21.222922,20.56751 4.321006,2.75172 8.916196,4.90165 13.817116,6.35792 4.55001,1.35199 9.26615,2.077 14.14686,2.17898 0.65772,0.0137 1.32385,0.0163 1.99846,0.007 5.59636,0.0764 10.97873,-0.65085 16.14531,-2.18605 4.9069,-1.45805 9.50175,-3.60978 13.81711,-6.35792 8.28303,-5.27484 15.21029,-12.53602 21.22293,-20.56751 6.03157,-8.05677 10.14849,-16.88247 12.95334,-26.29679 2.91587,-9.78694 4.37806,-20.10609 5.11356,-30.3926 0.39858,-5.57428 0.49777,-13.07111 -0.51626,-21.283396 -1.11274,-9.011745 -3.48612,-18.248485 -7.75374,-26.75491 -2.33345,-4.651152 -5.16785,-8.953921 -8.53527,-12.836675 -3.68841,-4.252855 -7.91589,-7.886205 -12.63771,-10.906076 -11.97146,-7.656425 -25.99358,-10.659605 -39.63008,-11.256357 z m 0,8.189426 c 12.76578,0.558648 25.22187,3.353232 35.57187,9.972642 4.07042,2.603265 7.69716,5.722474 10.86158,9.37116 2.89182,3.334368 5.35357,7.060482 7.4011,11.141716 3.7552,7.485048 5.91902,15.773301 6.94516,24.08362 0.93466,7.56956 0.84536,14.51934 0.47535,19.69422 -0.71042,9.93562 -2.10575,19.61642 -4.79319,28.63665 -2.57373,8.6386 -6.29515,16.55931 -11.65944,23.72475 -5.65159,7.54921 -11.88926,13.9968 -19.06399,18.56586 -3.72034,2.36921 -7.62363,4.18872 -11.74879,5.41448 -4.35595,1.29433 -8.92841,1.9173 -13.7503,1.84653 a 4.1097235,4.0880808 44.848796 0 0 -0.12031,0 c -0.59813,0.009 -1.18711,0.007 -1.76708,-0.005 -4.17108,-0.0872 -8.1582,-0.70464 -11.98323,-1.84121 -4.12009,-1.22425 -8.02367,-3.04223 -11.74879,-5.41448 -7.165195,-4.56298 -13.402752,-11.00376 -19.063993,-18.56586 -5.360036,-7.15976 -9.083348,-15.07822 -11.659447,-23.72475 -2.686266,-9.0163 -4.082338,-18.69507 -4.79318,-28.63664 -0.369933,-5.17374 -0.459429,-12.12376 0.47535,-19.69423 1.026065,-8.30976 3.189752,-16.598171 6.945147,-24.083603 2.047607,-4.081386 4.509381,-7.807473 7.401106,-11.141733 3.164785,-3.649107 6.791637,-6.7682 10.861582,-9.37116 10.360235,-6.625957 22.823325,-9.414748 35.571875,-9.972642 z"
         id="path9"
         inkscape:path-effect="#path-effect10;#path-effect13"
         inkscape:original-d="m 124.56435,39.024848 c 69.60369,0 71.86789,57.849764 70.37263,78.761872 -1.50998,21.11801 -5.94554,39.41265 -17.25955,54.52553 -11.41817,15.25202 -26.37155,27.81035 -47.97034,27.46704 -14.0697,-0.22363 -5.14274,-160.754442 -5.14274,-160.754442 z"
         sodipodi:nodetypes="csssc"
         transform="matrix(0.53370235,0,0,0.53074687,58.739492,62.862451)"
         inkscape:label="north"
         inkscape:linked-fill="path14" /></g></g><g
     inkscape:groupmode="layer"
     id="g3"
     inkscape:label="AverageShort"
     style="display:none;opacity:1"><g
       id="g4"
       inkscape:label="east"
       style="display:inline"><path
         inkscape:original-d="M 0,0"
         inkscape:path-effect="#path-effect7"
         d="m 110.9325,157.57128 c -6.8049,-2.62857 -12.753001,-8.23877 -16.701504,-16.94181 -12.811605,-28.23853 4.650672,-57.387759 32.650734,-57.387759 21.59191,0 36.25631,15.16744 39.15516,29.958649 3.11574,15.89789 -3.52895,27.48517 -4.99646,32.51242 -1.55552,5.32875 2.34151,7.74994 2.57992,10.48936 0.55761,6.40724 -9.45043,12.86758 -12.79289,17.81237 -0.62262,0.9211 -10.08395,0.22994 -16.71379,-3.70578 -7.30692,-4.33767 -9.01837,-6.81218 -14.02849,-9.36271 -2.89779,-1.4752 -9.15268,-3.37474 -9.15268,-3.37474 z"
         id="path7"
         style="display:inline;fill:url(#radialGradient166)"
         inkscape:label="fill" /><g
         id="g8"
         mask="url(#mask8)"><path
           style="display:inline;opacity:1;mix-blend-mode:normal;fill:#ebe0d7;fill-opacity:1;stroke:none;stroke-width:0.899583;filter:url(#filter8)"
           d="m 124.68138,152.85066 c -0.36441,-7.3013 2.62104,-22.38013 -5.10942,-27.0184 -7.73045,-4.63828 -30.671079,15.73958 -31.830639,20.5067 -1.15957,4.76711 31.917309,17.7259 38.359349,18.75663 6.44205,1.03073 -0.83702,-0.57898 -1.41929,-12.24493 z"
           id="path8"
           sodipodi:nodetypes="sssss" /><path
           style="display:inline;opacity:1;mix-blend-mode:normal;fill:#ebe0d7;fill-opacity:1;stroke:none;stroke-width:0.899583;filter:url(#filter13)"
           d="m 174.33322,150.66416 c -0.36441,-7.3013 -0.84092,-6.71019 -8.57138,-11.34846 -7.73045,-4.63828 -9.71709,2.89387 -10.87665,7.66099 -1.15957,4.76711 14.42528,14.90167 20.86732,15.9324 6.44205,1.03073 -0.83702,-0.57898 -1.41929,-12.24493 z"
           id="path13"
           sodipodi:nodetypes="sssss"
           transform="matrix(0.56284562,0,0,0.55506868,68.196235,66.583035)" /><rect
           style="display:inline;opacity:1;fill:#ff0000;fill-opacity:1;fill-rule:evenodd;stroke-width:0.899583"
           id="rect22"
           width="126.5218"
           height="111.18972"
           x="68.414536"
           y="72.408607"
           inkscape:label="mask" /></g><path
         style="display:inline;opacity:1;fill:#000000;fill-opacity:1;fill-rule:nonzero;stroke:none;stroke-width:4.873;stroke-linejoin:miter;stroke-dasharray:none;stroke-opacity:1"
         d="m 111.39568,156.37218 c -0.42508,-0.19256 -1.30568,-0.61339 -2.38399,-1.24029 -1.49912,-0.87155 -3.78886,-2.45916 -6.21273,-5.04753 -0.99292,-1.0603 -2.0883,-2.3736 -3.19881,-3.98396 -1.07654,-1.5611 -2.327363,-3.63074 -3.526205,-6.30706 -2.844962,-6.29514 -4.325707,-13.08182 -4.04315,-19.96076 0.249105,-6.06452 1.87575,-12.08466 4.987343,-17.46367 2.853476,-4.932807 6.944032,-9.287037 12.178692,-12.385752 4.91971,-2.91228 10.8827,-4.727385 17.68488,-4.735917 5.07278,-0.0082 9.81099,0.858136 14.13155,2.45 4.19119,1.544201 7.95807,3.760429 11.20536,6.468605 3.18303,2.654588 5.84052,5.7608 7.87785,9.103644 2.01555,3.30713 3.4055,6.81591 4.09909,10.29174 1.5208,7.63353 0.68875,14.2258 -0.6821,19.51148 -0.69664,2.68608 -1.53692,5.04971 -2.28712,7.04312 -0.39758,1.05642 -0.66158,1.72809 -1.05916,2.78451 -0.31672,0.84605 -0.59501,1.62879 -0.79325,2.32596 -0.45524,1.59741 -0.5005,2.99903 -0.30901,4.23739 0.19853,1.28391 0.64701,2.35539 1.08775,3.21979 0.47675,0.93504 0.95369,1.67253 1.27606,2.26463 0.17531,0.32199 0.30064,0.58463 0.38786,0.81736 0.0486,0.12959 0.0828,0.24344 0.10598,0.34489 0.0198,0.0865 0.0316,0.16465 0.0372,0.2363 0.0485,0.57306 -0.0202,1.17037 -0.20259,1.80067 -0.18521,0.64001 -0.48618,1.30814 -0.89277,2.00366 -0.83205,1.42332 -2.05268,2.87184 -3.4376,4.32252 -1.40808,1.47495 -2.96217,2.92764 -4.37317,4.31294 -0.72262,0.70945 -1.41661,1.40974 -2.04509,2.09733 -0.63687,0.69677 -1.22269,1.398 -1.70823,2.09846 0.13515,-0.20439 0.28484,-0.33136 0.37816,-0.39988 0.0948,-0.0696 0.17335,-0.10927 0.20598,-0.12538 0.0674,-0.0333 0.0614,-0.0279 -0.0243,-0.0175 -0.0847,0.0103 -0.20361,0.022 -0.3765,0.0299 -0.17027,0.008 -0.37131,0.0107 -0.60378,0.007 -0.47413,-0.008 -1.04396,-0.0425 -1.68934,-0.10949 -0.65948,-0.0684 -1.38215,-0.16872 -2.145,-0.30232 -1.60062,-0.2803 -3.31761,-0.69626 -4.99624,-1.24864 -1.80061,-0.59252 -3.48306,-1.31706 -4.95238,-2.16343 -1.23544,-0.71504 -2.29044,-1.358 -3.19782,-1.92532 -0.47281,-0.29561 -0.91939,-0.57766 -1.32383,-0.83393 -1.45591,-0.92253 -2.34523,-1.49415 -3.42262,-2.15201 -1.10625,-0.6755 -2.1048,-1.25021 -3.15489,-1.8098 -1.0487,-0.55884 -2.20184,-1.13033 -3.52844,-1.73991 -0.2447,-0.10457 -0.52111,-0.22076 -0.803,-0.33925 -0.15732,-0.0661 -0.31926,-0.13407 -0.49142,-0.206 -0.45391,-0.18965 -0.92114,-0.38291 -1.45159,-0.59936 -1.04965,-0.42831 -1.97405,-0.79576 -3.00476,-1.20719 -2.73876,-1.09326 -3.42855,-1.41392 -3.41251,-1.49836 z m -0.83671,2.42908 c 0,0 0,0 0,0 0.008,-0.0443 0.776,-0.0295 3.56682,0.76998 0.98165,0.2812 2.04683,0.61852 3.01604,0.97464 0.5125,0.18831 0.98516,0.37709 1.40311,0.56284 0.16119,0.0716 0.31324,0.14238 0.45578,0.21212 0.26102,0.12771 0.49525,0.25496 0.70033,0.37974 1.21945,0.68714 2.16849,1.39272 3.02768,2.11798 0.86844,0.73307 1.62873,1.4696 2.59488,2.35467 0.82805,0.75857 1.85609,1.67044 3.18845,2.68263 0.40451,0.3073 0.8464,0.63109 1.33158,0.97088 0.92743,0.64953 2.00788,1.36066 3.28679,2.13829 1.73196,1.05391 3.6756,1.90761 5.68949,2.57445 1.8797,0.6224 3.79616,1.07341 5.58109,1.36187 0.85314,0.13788 1.67326,0.23805 2.43566,0.30082 0.74205,0.0611 1.43678,0.0874 2.05462,0.0766 0.30412,-0.005 0.59559,-0.0197 0.86897,-0.0444 0.26832,-0.0243 0.53357,-0.0599 0.7845,-0.11147 0.23839,-0.0489 0.51754,-0.12298 0.79075,-0.24397 0.13838,-0.0613 0.3045,-0.14741 0.4731,-0.26905 0.16597,-0.11973 0.37174,-0.3008 0.54598,-0.56304 0.34321,-0.52594 0.79708,-1.10544 1.35621,-1.74609 0.54872,-0.62873 1.17512,-1.28962 1.86528,-1.99461 1.28856,-1.31627 2.94498,-2.92595 4.36996,-4.4661 1.42448,-1.53961 2.83427,-3.23196 3.84301,-5.00493 0.50056,-0.87981 0.91889,-1.80743 1.18945,-2.77382 0.26904,-0.96098 0.39397,-1.96799 0.30242,-3.00361 -0.0216,-0.24031 -0.0606,-0.4725 -0.11242,-0.69625 -0.0606,-0.26146 -0.13939,-0.51466 -0.2306,-0.75989 -0.15998,-0.43011 -0.3601,-0.84125 -0.5708,-1.23591 -0.39573,-0.74123 -0.84002,-1.45047 -1.20444,-2.19214 -0.33936,-0.69068 -0.6112,-1.4086 -0.72002,-2.20796 -0.10225,-0.75117 -0.072,-1.65135 0.2643,-2.76622 0.16684,-0.5528 0.41257,-1.22219 0.73438,-2.05069 0.36408,-0.93731 0.72503,-1.8321 1.08911,-2.76942 0.78919,-2.0328 1.70323,-4.52467 2.47087,-7.38573 1.5155,-5.64841 2.48582,-12.81794 0.87692,-21.15392 -0.76058,-3.9439 -2.29966,-7.87622 -4.51007,-11.55042 -2.23564,-3.716131 -5.15329,-7.161461 -8.64835,-10.106251 -3.56792,-3.006173 -7.71381,-5.471525 -12.33073,-7.194586 -4.76248,-1.777382 -9.96747,-2.743849 -15.50734,-2.752052 -7.52432,-0.0085 -14.20757,1.991252 -19.74676,5.255668 -5.88427,3.467777 -10.465535,8.339293 -13.649132,13.831531 -3.470995,5.98804 -5.26623,12.66178 -5.536096,19.34303 -0.306238,7.58175 1.341222,14.99725 4.438305,21.79919 1.343591,2.92748 2.767064,5.1962 4.029563,6.90867 1.301523,1.7654 2.60451,3.1749 3.80463,4.29797 2.93589,2.7474 5.71409,4.20077 7.46821,5.01281 1.25876,0.58273 2.29474,0.92637 2.77887,1.08533 z"
         id="path2"
         sodipodi:nodetypes="cscsssssac"
         inkscape:label="east"
         inkscape:path-effect="#path-effect5"
         inkscape:original-d="m 110.9325,157.57128 c -6.8049,-2.62857 -12.753001,-8.23877 -16.701504,-16.94181 -12.811605,-28.23853 4.650672,-57.387759 32.650734,-57.387759 21.59191,0 36.25631,15.16744 39.15516,29.958649 3.11574,15.89789 -3.52895,27.48517 -4.99646,32.51242 -1.55552,5.32875 2.34151,7.74994 2.57992,10.48936 0.55761,6.40724 -9.45043,12.86758 -12.79289,17.81237 -0.62262,0.9211 -10.08395,0.22994 -16.71379,-3.70578 -7.30692,-4.33767 -9.01837,-6.81218 -14.02849,-9.36271 -2.89779,-1.4752 -9.15268,-3.37474 -9.15268,-3.37474 z"
         inkscape:linked-fill="path7" /></g><g
       id="g19"
       inkscape:label="north"><path
         inkscape:original-d="M 0,0"
         inkscape:path-effect="#path-effect20;#path-effect21"
         d=""
         id="path20"
         style="fill:url(#radialGradient6)"
         inkscape:label="fill" /><g
         inkscape:groupmode="layer"
         id="layer10"
         inkscape:label="clip"
         style="display:inline;opacity:1"
         mask="url(#mask21)"><rect
           style="opacity:1;fill:#ff0000;fill-opacity:1;fill-rule:evenodd;stroke-width:0.899583"
           id="rect21"
           width="102.17086"
           height="105.52072"
           x="75.758461"
           y="69.187576" /></g><path
         style="display:none;mix-blend-mode:normal;fill:#000000;fill-opacity:1;fill-rule:nonzero;stroke:none;stroke-width:9.15594;stroke-dasharray:none;stroke-opacity:1;filter:url(#filter164)"
         d="m 129.59108,34.552616 c -7.35544,0.293225 -14.96504,1.229232 -22.35017,3.208365 -6.10782,1.636827 -11.931816,3.952265 -17.291806,7.097327 -4.734636,2.778125 -8.984348,6.131833 -12.700563,10.076542 -3.393354,3.601997 -6.252404,7.601857 -8.611847,11.936977 -4.317721,7.933162 -6.720681,16.541575 -7.921486,24.975056 -0.553133,3.884754 -0.835557,7.620096 -0.955474,11.083677 -0.115796,3.34456 -0.07755,6.35622 -0.0017,8.91226 0.288762,9.73126 0.877183,23.02771 3.673294,36.04825 1.359698,6.33165 3.265878,12.74098 5.983584,18.8219 2.701551,6.04477 6.209174,11.77427 10.784787,16.78439 3.596457,3.93797 7.748083,7.20162 12.063568,9.87887 4.400176,2.7298 8.999528,4.86822 13.428038,6.5078 4.59045,1.69954 9.04521,2.88147 13.02936,3.64552 4.21069,0.80751 7.97841,1.16572 11.04421,1.17146 a 4.5779703,4.5779698 44.998123 0 0 0.0171,0 c 3.06578,-0.006 6.83362,-0.36395 11.04446,-1.17145 3.98432,-0.76405 8.43931,-1.94597 13.03,-3.6455 4.42874,-1.63957 9.02834,-3.77799 13.42871,-6.50778 4.31568,-2.67724 8.46746,-5.94091 12.06394,-9.8789 4.57566,-5.01018 8.08317,-10.73972 10.78454,-16.78451 2.71753,-6.08097 4.62346,-12.49032 5.98291,-18.82197 2.79557,-13.02043 3.38352,-26.31707 3.67228,-36.04808 0.0758,-2.55604 0.11409,-5.5677 -0.002,-8.91226 -0.11992,-3.463581 -0.40234,-7.198923 -0.95547,-11.083677 -1.20081,-8.433481 -3.60377,-17.041894 -7.92149,-24.975056 -2.35944,-4.33512 -5.21849,-8.33498 -8.61185,-11.936977 -3.71621,-3.944709 -7.96592,-7.298417 -12.70056,-10.076542 -5.35999,-3.145062 -11.18399,-5.4605 -17.2918,-7.097327 -7.38513,-1.979133 -14.99474,-2.91514 -22.35018,-3.208365 z m 0,9.148674 c 6.85191,0.273151 13.76406,1.139991 20.34483,2.903562 5.43164,1.45562 10.47457,3.4784 15.02824,6.150338 4.01513,2.355944 7.57423,5.172071 10.66982,8.457996 2.82835,3.002248 5.23184,6.356516 7.23422,10.035591 3.67478,6.751841 5.81201,14.254889 6.89896,21.888761 0.49945,3.507757 0.75883,6.912502 0.86953,10.109832 0.10688,3.08681 0.0725,5.89064 2.5e-4,8.32387 -0.2873,9.6822 -0.86562,22.25699 -3.47229,34.39762 -1.26073,5.87185 -2.99326,11.64484 -5.39017,17.00834 -2.37901,5.32346 -5.38605,10.18484 -9.18609,14.34574 -2.93427,3.21291 -6.40001,5.95912 -10.12982,8.27292 -3.80208,2.35864 -7.83481,4.24091 -11.78088,5.70179 -4.0882,1.5135 -8.05433,2.56457 -11.57557,3.23982 -3.7345,0.71614 -6.92284,1.00243 -9.32867,1.0076 -2.40583,-0.005 -5.59404,-0.29145 -9.32832,-1.00759 -3.52105,-0.67525 -7.48693,-1.72631 -11.57487,-3.2398 -3.94582,-1.46087 -7.97831,-3.34314 -11.780211,-5.70177 -3.729629,-2.3138 -7.195283,-5.06002 -10.129581,-8.27296 C 83.160372,173.162 80.153196,168.30058 77.774007,162.9771 75.37691,157.61355 73.644135,151.84054 72.383178,145.96869 69.77601,133.828 69.197244,121.25337 68.90994,111.57125 c -0.0722,-2.43324 -0.106621,-5.23707 2.52e-4,-8.32388 0.110698,-3.19733 0.370078,-6.602075 0.869532,-10.109832 1.086952,-7.633872 3.224184,-15.13692 6.898957,-21.888761 2.002381,-3.679075 4.405878,-7.033343 7.234223,-10.035591 3.095591,-3.285925 6.654695,-6.102052 10.669825,-8.457996 4.553667,-2.671938 9.596601,-4.694718 15.028241,-6.150338 6.58076,-1.763571 13.49292,-2.630411 20.34482,-2.903562 z"
         id="path3"
         inkscape:path-effect="#path-effect4;#path-effect19"
         inkscape:original-d="m 124.56435,39.024848 c 69.60369,0 71.24284,52.648875 70.64835,72.682912 -0.61304,20.6594 -2.49901,50.36566 -19.2448,68.70164 -13.01152,14.24709 -34.90416,19.7132 -46.2608,19.7132 -14.07146,0 -5.14275,-161.097752 -5.14275,-161.097752 z"
         sodipodi:nodetypes="csssc"
         transform="matrix(0.53370235,0,0,0.53074687,58.739492,62.862451)"
         inkscape:label="north"
         inkscape:linked-fill="path20" /></g><g
       id="g2"
       inkscape:label="south"
       style="display:none"><path
         inkscape:original-d="M 0,0"
         inkscape:path-effect="#path-effect17;#path-effect18"
         d=""
         id="path17"
         style="fill:url(#radialGradient159)"
         inkscape:label="fill" /><g
         inkscape:groupmode="layer"
         id="layer9"
         inkscape:label="clip"
         style="display:inline;opacity:1"
         mask="url(#mask18)"><rect
           style="opacity:1;fill:#ff0000;fill-opacity:1;fill-rule:evenodd;stroke-width:0.899583"
           id="rect18"
           width="99.722885"
           height="110.41668"
           x="76.918037"
           y="72.923965" /></g><path
         style="display:inline;mix-blend-mode:normal;fill:#000000;fill-opacity:1;fill-rule:nonzero;stroke:none;stroke-width:9.15594;stroke-dasharray:none;stroke-opacity:1;filter:url(#filter164)"
         d="m 129.59108,34.552616 c -7.55703,0.301262 -15.11997,1.270751 -22.35017,3.208365 -6.16668,1.6526 -11.97766,3.979164 -17.291813,7.097331 -4.753761,2.789348 -8.998981,6.14737 -12.700557,10.076539 -3.398671,3.607641 -6.256298,7.609011 -8.611846,11.936976 -4.31639,7.930717 -6.720181,16.538066 -7.921485,24.975049 -0.55255,3.880662 -0.835387,7.615178 -0.955475,11.083684 -0.115649,3.34033 -0.07773,6.35024 -0.0017,8.91225 0.153684,5.17911 0.639667,11.27868 1.547981,17.94098 0.864634,6.34192 2.120654,13.25107 3.84679,20.28667 1.665257,6.78746 3.782666,13.75044 6.425158,20.4103 2.575287,6.49048 5.678412,12.76628 9.391349,18.31217 2.753801,4.11327 6.453291,7.86575 10.556438,11.17045 4.079717,3.28582 8.627716,6.18438 13.184216,8.59115 4.55226,2.40452 9.15693,4.34136 13.37135,5.68619 2.11761,0.67573 4.16252,1.21029 6.07535,1.57837 1.91155,0.36783 3.76123,0.5831 5.46248,0.5831 0.044,0 0.0958,-3.5e-4 0.1543,-0.002 0.0585,0.001 0.1103,0.002 0.15429,0.002 1.70125,0 3.55093,-0.21527 5.46247,-0.5831 1.91285,-0.36808 3.95776,-0.90264 6.07536,-1.57837 4.21442,-1.34483 8.8191,-3.28167 13.37135,-5.68619 4.5565,-2.40677 9.1045,-5.30533 13.18421,-8.59114 4.10316,-3.30471 7.80265,-7.05719 10.55645,-11.17045 3.71294,-5.5459 6.81606,-11.8217 9.39135,-18.31218 2.64249,-6.65986 4.7599,-13.62284 6.42516,-20.4103 1.72613,-7.0356 2.98215,-13.94475 3.84679,-20.28667 0.90831,-6.6623 1.39429,-12.76187 1.54798,-17.94097 0.076,-2.56202 0.11394,-5.57193 -0.002,-8.91226 -0.12009,-3.468506 -0.40292,-7.203022 -0.95547,-11.083684 -1.20131,-8.436983 -3.6051,-17.044332 -7.92149,-24.975049 -2.35555,-4.327965 -5.21317,-8.329335 -8.61185,-11.936976 -3.70157,-3.929169 -7.94679,-7.287191 -12.70055,-10.076539 -5.31416,-3.118167 -11.12514,-5.444731 -17.29181,-7.097331 -7.23021,-1.937614 -14.79314,-2.907103 -22.35018,-3.208365 z m 0,9.148674 c 7.03555,0.280472 13.9052,1.177813 20.34483,2.903562 5.48275,1.469317 10.51438,3.501758 15.02824,6.150342 4.03117,2.365354 7.58651,5.185098 10.66982,8.457993 2.83281,3.006986 5.23511,6.362522 7.23422,10.03559 3.67361,6.749699 5.81157,14.251814 6.89896,21.888754 0.49892,3.504024 0.75868,6.908019 0.86953,10.109839 0.10674,3.08287 0.0726,5.88506 2.6e-4,8.32386 -0.14345,4.83411 -0.60034,10.61095 -1.46809,16.97572 -0.82621,6.06009 -2.02463,12.64769 -3.667,19.34186 -1.58584,6.46377 -3.58394,13.01654 -6.04343,19.21516 -2.40217,6.05417 -5.22436,11.71883 -8.48911,16.59528 -2.10329,3.14162 -5.09135,6.23394 -8.69132,9.13337 -3.5579,2.86555 -7.60032,5.45131 -11.7174,7.62596 -4.11451,2.17331 -8.22107,3.89246 -11.87843,5.05953 -1.83366,0.58512 -3.52357,1.02164 -5.02205,1.30998 -1.51843,0.29219 -2.76789,0.41816 -3.73238,0.41816 0.0211,0 0.11894,9e-5 0.26041,0.013 l -0.82941,0 c 0.14147,-0.0129 0.23929,-0.013 0.26041,-0.013 -0.96448,0 -2.21395,-0.12597 -3.73236,-0.41815 -1.49849,-0.28835 -3.18841,-0.72487 -5.02207,-1.30999 -3.65735,-1.16707 -7.76392,-2.88622 -11.87843,-5.05953 -4.11707,-2.17465 -8.15949,-4.76041 -11.717389,-7.62595 -3.59998,-2.89944 -6.588033,-5.99176 -8.691321,-9.13337 -3.264751,-4.87646 -6.086948,-10.54112 -8.489116,-16.59529 -2.459485,-6.19862 -4.457588,-12.75139 -6.043431,-19.21516 -1.64237,-6.69417 -2.840788,-13.28177 -3.666999,-19.34186 -0.867749,-6.36477 -1.324639,-12.14161 -1.468084,-16.9757 -0.07237,-2.43882 -0.106484,-5.24101 2.52e-4,-8.32388 0.110854,-3.20182 0.37061,-6.605815 0.869533,-10.109839 1.087389,-7.63694 3.225349,-15.139055 6.898956,-21.888754 1.999112,-3.673068 4.401413,-7.028604 7.234223,-10.03559 3.083315,-3.272895 6.638652,-6.092639 10.669819,-8.457993 4.513864,-2.648584 9.545497,-4.681025 15.028247,-6.150342 6.43963,-1.725749 13.30927,-2.62309 20.34482,-2.903562 z"
         id="path4"
         inkscape:path-effect="#path-effect6;#path-effect16"
         inkscape:original-d="m 124.56435,39.024848 c 69.60369,0 71.24284,52.648875 70.64835,72.682912 -0.61304,20.6594 -6.61388,53.88663 -20.43972,74.53784 -9.76817,14.5904 -34.14856,25.57885 -44.84518,25.57885 -14.07146,0 -5.36345,-172.799602 -5.36345,-172.799602 z"
         sodipodi:nodetypes="csssc"
         transform="matrix(0.53370235,0,0,0.53074687,58.739492,62.862451)"
         inkscape:label="stroke"
         inkscape:linked-fill="path17" /></g></g></svg>
